<svg width="51" height="50" viewBox="0 0 51 50" fill="none" xmlns="http://www.w3.org/2000/svg">
<path d="M41.9689 50H9.03108C4.03716 50 0 45.9405 0 40.919V9.08103C0 4.05949 4.03716 0 9.03108 0H41.9689C46.9628 0 51 4.05949 51 9.08103V40.919C51 45.9405 46.9628 50 41.9689 50Z" fill="#FF26BE"/>
<path d="M41.1609 47.8624H9.83873C5.58941 47.8624 2.12549 44.3793 2.12549 40.1065V9.89311C2.12549 5.62029 5.58941 2.13721 9.83873 2.13721H41.1405C45.4123 2.13721 48.8538 5.62029 48.8538 9.89311V40.086C48.8742 44.3793 45.4102 47.8624 41.1609 47.8624Z" fill="#2E001F"/>
<path d="M20.1654 23.397L26.1161 34.8924C26.2222 35.0627 26.159 35.235 25.9876 35.235H22.2891C22.0545 35.235 21.9484 35.1714 21.8423 34.958C20.4816 32.1375 19.1006 29.317 17.6766 26.2832H17.6338C16.3588 29.1468 14.9553 32.1601 13.5966 34.9806C13.4906 35.1509 13.3845 35.2165 13.2131 35.2165H9.71044C9.49828 35.2165 9.47584 35.0462 9.58396 34.917L15.4061 23.7622L9.77572 12.4802C9.6472 12.3099 9.77572 12.1807 9.9022 12.1807H13.5579C13.77 12.1807 13.8557 12.2237 13.9394 12.4166C15.2776 15.2371 16.6383 18.1437 17.9133 20.9847H17.9561C19.1883 18.1642 20.549 15.2371 21.8668 12.4371C21.9729 12.2668 22.0361 12.1602 22.2503 12.1602H25.6714C25.8407 12.1602 25.906 12.2894 25.7999 12.4596L20.1654 23.397ZM27.1586 26.8801C27.1586 21.9017 30.4532 18.0124 35.6796 18.0124C36.1264 18.0124 36.359 18.0124 36.7853 18.0555V12.394C36.7853 12.2648 36.8914 12.1807 36.9975 12.1807H40.3553C40.5246 12.1807 40.5675 12.2443 40.5675 12.3509V31.9673C40.5675 32.5437 40.5675 33.2698 40.6736 34.0616C40.6736 34.1909 40.6307 34.2319 40.5042 34.2975C38.7192 35.1529 36.8486 35.5365 35.0636 35.5365C30.4511 35.555 27.1565 32.6934 27.1586 26.8801ZM36.7833 21.4114C36.4854 21.2822 36.0611 21.1981 35.5511 21.1981C32.8726 21.1981 31.004 23.2699 31.004 26.7119C31.004 30.6442 32.9175 32.2257 35.3186 32.2257C35.8286 32.2257 36.3814 32.1622 36.7853 31.9898V21.4114H36.7833Z" fill="#FFD9F2"/>
</svg>
