<svg width="34" height="24" viewBox="0 0 34 24" fill="none" xmlns="http://www.w3.org/2000/svg">
<path fill-rule="evenodd" clip-rule="evenodd" d="M0 0H6.67343C10.3591 0 13.3469 2.98477 13.3469 6.66667C13.3469 8.31278 12.7496 9.81955 11.7599 10.9825C14.4499 11.8424 16.3976 14.3606 16.3976 17.3333C16.3976 21.0152 13.4098 24 9.72414 24H0V0ZM2.66937 13.3333V21.3333H9.72414C11.9355 21.3333 13.7282 19.5425 13.7282 17.3333C13.7282 15.1242 11.9355 13.3333 9.72414 13.3333H2.66937ZM2.66937 10.6667H6.67343C8.88481 10.6667 10.6775 8.87581 10.6775 6.66667C10.6775 4.45753 8.88481 2.66667 6.67343 2.66667H2.66937V10.6667ZM32.6045 5.71429H18.8763V3.04762H32.6045V5.71429ZM18.3043 16.5714C18.3043 12.4687 21.6335 9.14286 25.7404 9.14286C29.8472 9.14286 33.1765 12.4687 33.1765 16.5714V17.9048H21.163C21.7402 19.8857 23.5711 21.3333 25.7404 21.3333C26.7538 21.3333 27.6897 21.0189 28.4607 20.4824L29.9864 22.6705C28.7822 23.5085 27.3167 24 25.7404 24C21.6335 24 18.3043 20.6741 18.3043 16.5714ZM21.163 15.2381H30.3177C29.7405 13.2571 27.9097 11.8095 25.7404 11.8095C23.5711 11.8095 21.7402 13.2571 21.163 15.2381Z" fill="#101223"/>
</svg>
