<svg width="48" height="48" viewBox="0 0 48 48" fill="none" xmlns="http://www.w3.org/2000/svg">
<rect width="48" height="48" rx="24" fill="white"/>
<path fill-rule="evenodd" clip-rule="evenodd" d="M14 16C14 15.4477 14.4477 15 15 15H33C33.5523 15 34 15.4477 34 16C34 16.5523 33.5523 17 33 17H15C14.4477 17 14 16.5523 14 16Z" fill="#101828"/>
<path fill-rule="evenodd" clip-rule="evenodd" d="M14 24C14 23.4477 14.4477 23 15 23H33C33.5523 23 34 23.4477 34 24C34 24.5523 33.5523 25 33 25H15C14.4477 25 14 24.5523 14 24Z" fill="#101828"/>
<path fill-rule="evenodd" clip-rule="evenodd" d="M14 32C14 31.4477 14.4477 31 15 31H33C33.5523 31 34 31.4477 34 32C34 32.5523 33.5523 33 33 33H15C14.4477 33 14 32.5523 14 32Z" fill="#101828"/>
</svg>
