<svg width="50" height="50" viewBox="0 0 50 50" fill="none" xmlns="http://www.w3.org/2000/svg">
<path d="M45.4674 0H4.53262C2.0293 0 0 2.0293 0 4.53262V45.4674C0 47.9707 2.0293 50 4.53262 50H45.4674C47.9707 50 50 47.9707 50 45.4674V4.53262C50 2.0293 47.9707 0 45.4674 0Z" fill="#DC395F"/>
<path d="M16.71 15.7314C18.3721 15.7314 19.7645 14.4286 19.7645 12.7212C19.7645 11.0149 18.3721 9.7124 16.71 9.7124C15.0479 9.7124 13.6559 11.0149 13.6559 12.7212C13.6559 14.4284 15.0479 15.7314 16.71 15.7314ZM10.3768 31.8486C10.1973 32.6123 10.1072 33.4369 10.1072 34.1096C10.1072 36.7602 11.5445 38.5197 14.599 38.5197C17.1322 38.5197 19.1859 37.0154 20.6646 34.5863L19.7617 38.21H24.792L27.667 26.6789C28.3857 23.7593 29.7781 22.2439 31.8895 22.2439C33.5514 22.2439 34.5844 23.2775 34.5844 24.9838C34.5844 25.4781 34.5395 26.0166 34.3598 26.6008L32.8773 31.901C32.6527 32.6646 32.5633 33.4287 32.5633 34.1469C32.5633 36.6631 34.0451 38.5035 37.1445 38.5035C39.7947 38.5035 41.9057 36.7975 43.0736 32.7098L41.0975 31.9469C40.1092 34.6854 39.2557 35.1805 38.5818 35.1805C37.908 35.1805 37.5486 34.7316 37.5486 33.8338C37.5486 33.4295 37.6389 32.9809 37.7732 32.4406L39.2109 27.2769C39.5701 26.0644 39.7051 24.9892 39.7051 24.0013C39.7051 20.1384 37.3691 18.1224 34.5395 18.1224C31.8895 18.1224 29.1941 20.5128 27.8469 23.0287L28.8348 18.513H21.1543L20.0762 22.4904H23.6697L21.4568 31.3498C19.7191 35.2127 16.5271 35.2754 16.1266 35.1858C15.4688 35.0373 15.048 34.7875 15.048 33.9328C15.048 33.4396 15.1379 32.7312 15.3625 31.8771L18.7316 18.513H10.1973L9.11914 22.4904H12.6674L10.377 31.8486" fill="white"/>
</svg>
