<svg width="24" height="24" viewBox="0 0 24 24" fill="none" xmlns="http://www.w3.org/2000/svg">
<path fill-rule="evenodd" clip-rule="evenodd" d="M0.176758 2.03077C0.176758 0.909207 1.06778 0 2.16691 0H21.7066C22.8057 0 23.6968 0.909206 23.6968 2.03077V21.9692C23.6968 23.0908 22.8057 24 21.7066 24H2.16691C1.06778 24 0.176758 23.0908 0.176758 21.9692V2.03077ZM2.16691 1.84615C2.06699 1.84615 1.98599 1.92881 1.98599 2.03077V21.9692C1.98599 22.0712 2.06699 22.1538 2.16691 22.1538H21.7066C21.8065 22.1538 21.8875 22.0712 21.8875 21.9692V2.03077C21.8875 1.92881 21.8065 1.84615 21.7066 1.84615H2.16691ZM7.05183 7.38462H5.9663V5.53846H7.05183V7.38462ZM13.5651 10.7077C11.9663 10.7077 10.6703 12.0302 10.6703 13.6615V18.0923H8.86107V9.23077H10.6703V9.87778C11.4685 9.24103 12.4734 8.86154 13.5651 8.86154C16.163 8.86154 18.2691 11.0106 18.2691 13.6615V18.0923H16.4598V13.6615C16.4598 12.0302 15.1638 10.7077 13.5651 10.7077ZM5.60445 18.0923V9.23077H7.41368V18.0923H5.60445Z" fill="#101223"/>
</svg>
