<svg width="24" height="24" viewBox="0 0 24 24" fill="none" xmlns="http://www.w3.org/2000/svg">
<path fill-rule="evenodd" clip-rule="evenodd" d="M0.17627 2.03077C0.17627 0.909207 1.06729 0 2.16642 0H21.7061C22.8052 0 23.6963 0.909206 23.6963 2.03077V21.9692C23.6963 23.0908 22.8052 24 21.7061 24H2.16642C1.06729 24 0.17627 23.0908 0.17627 21.9692V2.03077ZM2.16642 1.84615C2.0665 1.84615 1.9855 1.92881 1.9855 2.03077V21.9692C1.9855 22.0712 2.0665 22.1538 2.16642 22.1538H21.7061C21.806 22.1538 21.887 22.0712 21.887 21.9692V2.03077C21.887 1.92881 21.806 1.84615 21.7061 1.84615H2.16642ZM7.05135 7.38462H5.96581V5.53846H7.05135V7.38462ZM13.5646 10.7077C11.9658 10.7077 10.6698 12.0302 10.6698 13.6615V18.0923H8.86058V9.23077H10.6698V9.87778C11.468 9.24103 12.4729 8.86154 13.5646 8.86154C16.1625 8.86154 18.2686 11.0106 18.2686 13.6615V18.0923H16.4593V13.6615C16.4593 12.0302 15.1633 10.7077 13.5646 10.7077ZM5.60396 18.0923V9.23077H7.41319V18.0923H5.60396Z" fill="white"/>
</svg>
