<svg width="31" height="24" viewBox="0 0 31 24" fill="none" xmlns="http://www.w3.org/2000/svg">
<path fill-rule="evenodd" clip-rule="evenodd" d="M4.3886 1.84615C3.37532 1.84615 2.54244 2.67903 2.54244 3.69231V20.3077C2.54244 21.321 3.37532 22.1538 4.3886 22.1538H26.5424C27.5557 22.1538 28.3886 21.321 28.3886 20.3077V3.69231C28.3886 2.67903 27.5557 1.84615 26.5424 1.84615H4.3886ZM0.696289 3.69231C0.696289 1.65943 2.35572 0 4.3886 0H26.5424C28.5753 0 30.2348 1.65943 30.2348 3.69231V20.3077C30.2348 22.3406 28.5753 24 26.5424 24H4.3886C2.35572 24 0.696289 22.3406 0.696289 20.3077V3.69231Z" fill="#101223"/>
<path fill-rule="evenodd" clip-rule="evenodd" d="M0.863231 3.16334C1.15558 2.74569 1.73115 2.64412 2.1488 2.93647L15.4656 12.2582L28.7824 2.93647C29.2001 2.64412 29.7756 2.74569 30.068 3.16334C30.3603 3.58098 30.2588 4.15655 29.8411 4.4489L15.995 14.1412C15.6771 14.3637 15.2541 14.3637 14.9363 14.1412L1.0901 4.4489C0.67245 4.15655 0.570879 3.58098 0.863231 3.16334Z" fill="#101223"/>
</svg>
