<svg width="50" height="50" viewBox="0 0 50 50" fill="none" xmlns="http://www.w3.org/2000/svg">
<g clip-path="url(#clip0_907_212)">
<path fill-rule="evenodd" clip-rule="evenodd" d="M18.3322 0C15.5683 0.00203874 13.3314 2.24057 13.3335 4.99898C13.3314 7.75739 15.5703 9.99592 18.3343 9.99796H23.3351V5.00102C23.3371 2.24261 21.0982 0.00407747 18.3322 0C18.3343 0 18.3343 0 18.3322 0V0ZM18.3322 13.3333H5.00082C2.23689 13.3354 -0.00203723 15.5739 5.58276e-06 18.3323C-0.00408005 21.0907 2.23484 23.3293 4.99877 23.3333H18.3322C21.0962 23.3313 23.3351 21.0928 23.333 18.3344C23.3351 15.5739 21.0962 13.3354 18.3322 13.3333Z" fill="#36C5F0"/>
<path fill-rule="evenodd" clip-rule="evenodd" d="M50.0002 18.3323C50.0022 15.5739 47.7633 13.3354 44.9993 13.3333C42.2354 13.3354 39.9964 15.5739 39.9985 18.3323V23.3333H44.9993C47.7633 23.3313 50.0022 21.0928 50.0002 18.3323ZM36.6666 18.3323V4.99898C36.6687 2.24261 34.4318 0.00407747 31.6678 0C28.9039 0.00203874 26.665 2.24057 26.667 4.99898V18.3323C26.6629 21.0907 28.9019 23.3293 31.6658 23.3333C34.4297 23.3313 36.6687 21.0928 36.6666 18.3323Z" fill="#2EB67D"/>
<path fill-rule="evenodd" clip-rule="evenodd" d="M31.6659 49.9999C34.4298 49.9979 36.6687 47.7594 36.6667 45.0009C36.6687 42.2425 34.4298 40.004 31.6659 40.002H26.665V45.0009C26.663 47.7573 28.9019 49.9958 31.6659 49.9999ZM31.6659 36.6646H44.9993C47.7633 36.6625 50.0022 34.424 50.0001 31.6656C50.0042 28.9072 47.7653 26.6686 45.0014 26.6646H31.6679C28.904 26.6666 26.665 28.9051 26.6671 31.6635C26.665 34.424 28.9019 36.6625 31.6659 36.6646Z" fill="#ECB22E"/>
<path fill-rule="evenodd" clip-rule="evenodd" d="M1.3968e-06 31.6655C-0.00204143 34.4239 2.23689 36.6625 5.00083 36.6645C7.76477 36.6625 10.0037 34.4239 10.0017 31.6655V26.6665H5.00083C2.23689 26.6685 -0.00204143 28.9071 1.3968e-06 31.6655ZM13.3335 31.6655V44.9989C13.3294 47.7573 15.5683 49.9959 18.3323 50C21.0962 49.9979 23.3352 47.7594 23.3331 45.001V31.6696C23.3372 28.9112 21.0983 26.6726 18.3343 26.6685C15.5683 26.6685 13.3315 28.9071 13.3335 31.6655C13.3335 31.6655 13.3335 31.6675 13.3335 31.6655Z" fill="#E01E5A"/>
</g>
<defs>
<clipPath id="clip0_907_212">
<rect width="50" height="50" fill="white"/>
</clipPath>
</defs>
</svg>
