<svg width="51" height="50" viewBox="0 0 51 50" fill="none" xmlns="http://www.w3.org/2000/svg">
<path d="M26.9386 16.6673C30.9775 16.6673 34.2516 13.4025 34.2516 9.37517C34.2516 5.34782 30.9775 2.08301 26.9386 2.08301C22.8997 2.08301 19.6255 5.34782 19.6255 9.37517C19.6255 13.4025 22.8997 16.6673 26.9386 16.6673Z" fill="#7B83EB"/>
<path opacity="0.1" d="M26.4165 10.9375H19.793L19.8259 11.0828L19.829 11.0953L19.8635 11.2297C20.3448 13.0496 21.5125 14.6137 23.1228 15.5955C24.733 16.5772 26.6614 16.9008 28.5053 16.4985V13.0203C28.5036 12.4684 28.283 11.9396 27.8917 11.5494C27.5003 11.1591 26.97 10.9391 26.4165 10.9375Z" fill="black"/>
<path opacity="0.2" d="M24.8497 12.5H20.3306C20.9237 13.7469 21.8594 14.8004 23.0291 15.538C24.1988 16.2757 25.5544 16.6672 26.9384 16.6672V14.5828C26.9368 14.0309 26.7162 13.5021 26.3248 13.1119C25.9334 12.7216 25.4031 12.5016 24.8497 12.5Z" fill="black"/>
<path d="M43.3916 17.1875C46.4205 17.1875 48.8759 14.7391 48.8759 11.7188C48.8759 8.69844 46.4205 6.25 43.3916 6.25C40.3627 6.25 37.9072 8.69844 37.9072 11.7188C37.9072 14.7391 40.3627 17.1875 43.3916 17.1875Z" fill="#5059C9"/>
<path d="M48.0927 18.75H35.7747C35.5088 18.75 35.2537 18.8554 35.0656 19.0429C34.8775 19.2304 34.7719 19.4848 34.7719 19.75V32.4219C34.7379 34.2558 35.3369 36.0458 36.4686 37.4919C37.6002 38.938 39.1958 39.9526 40.9881 40.3656C42.1296 40.6045 43.3102 40.5865 44.4438 40.3129C45.5775 40.0394 46.6357 39.5172 47.5414 38.7844C48.4472 38.0516 49.1776 37.1266 49.6796 36.0767C50.1816 35.0269 50.4424 33.8787 50.4432 32.7156V21.0937C50.4432 20.4721 50.1956 19.876 49.7548 19.4365C49.314 18.9969 48.7161 18.75 48.0927 18.75Z" fill="#5059C9"/>
<path d="M39.4746 21.0938V35.9375C39.4761 38.6884 38.567 41.3628 36.8883 43.5458C35.2097 45.7288 32.8553 47.2983 30.1907 48.0106C27.526 48.7229 24.7001 48.5383 22.1514 47.4855C19.6028 46.4326 17.4739 44.5703 16.0952 42.1875C15.7936 41.6878 15.5317 41.1654 15.3117 40.625C15.1066 40.1156 14.9339 39.5937 14.7946 39.0625C14.5362 38.0408 14.4047 36.9913 14.4028 35.9375V21.0938C14.4024 20.7859 14.4629 20.4809 14.5809 20.1964C14.6989 19.9118 14.872 19.6533 15.0904 19.4356C15.3087 19.2178 15.568 19.0452 15.8533 18.9276C16.1387 18.8099 16.4445 18.7496 16.7533 18.75H37.1241C37.4329 18.7496 37.7387 18.8099 38.0241 18.9276C38.3094 19.0452 38.5687 19.2178 38.787 19.4356C39.0054 19.6533 39.1785 19.9118 39.2965 20.1964C39.4145 20.4809 39.475 20.7859 39.4746 21.0938Z" fill="#7B83EB"/>
<path opacity="0.2" d="M24.8497 12.5H20.3306C20.9237 13.7469 21.8594 14.8004 23.0291 15.538C24.1988 16.2757 25.5544 16.6672 26.9384 16.6672V14.5828C26.9368 14.0309 26.7162 13.5021 26.3248 13.1119C25.9334 12.7216 25.4031 12.5016 24.8497 12.5Z" fill="black"/>
<path opacity="0.1" d="M28.5057 18.75V38.5468C28.5057 39.0178 28.344 39.4747 28.0475 39.8414C27.7511 40.2081 27.3376 40.4625 26.876 40.5624C26.7286 40.6062 26.5754 40.6272 26.4216 40.6249H15.3117C15.1066 40.1155 14.9339 39.5936 14.7946 39.0624C14.5362 38.0407 14.4047 36.9912 14.4028 35.9375V21.0937C14.4024 20.7858 14.4629 20.4809 14.5809 20.1963C14.6989 19.9118 14.872 19.6533 15.0904 19.4356C15.3087 19.2178 15.568 19.0452 15.8533 18.9276C16.1387 18.8099 16.4445 18.7496 16.7533 18.75H28.5057Z" fill="black"/>
<path opacity="0.2" d="M26.9387 18.75V40.1094C26.941 40.2628 26.9198 40.4156 26.876 40.5626C26.7758 41.0229 26.5206 41.4351 26.1529 41.7307C25.7851 42.0264 25.327 42.1876 24.8546 42.1876H16.0952C15.7936 41.6878 15.5317 41.1654 15.3117 40.6251C15.1066 40.1156 14.9339 39.5937 14.7946 39.0626C14.5362 38.0408 14.4047 36.9913 14.4028 35.9375V21.0938C14.4024 20.7859 14.4629 20.4809 14.5809 20.1964C14.6989 19.9118 14.872 19.6533 15.0904 19.4356C15.3087 19.2178 15.568 19.0452 15.8533 18.9276C16.1387 18.8099 16.4445 18.7496 16.7533 18.75H26.9387Z" fill="black"/>
<path opacity="0.2" d="M26.9387 18.75V36.9844C26.9362 37.5348 26.7159 38.0619 26.3255 38.4511C25.9352 38.8403 25.4066 39.06 24.8546 39.0625H14.7946C14.5362 38.0407 14.4047 36.9912 14.4028 35.9375V21.0938C14.4024 20.7859 14.4629 20.4809 14.5809 20.1964C14.6989 19.9118 14.872 19.6533 15.0904 19.4356C15.3087 19.2178 15.568 19.0452 15.8533 18.9276C16.1387 18.8099 16.4445 18.7496 16.7533 18.75H26.9387Z" fill="black"/>
<path opacity="0.2" d="M16.7533 18.75C16.4445 18.7496 16.1387 18.8099 15.8533 18.9276C15.568 19.0452 15.3087 19.2178 15.0903 19.4356C14.872 19.6533 14.6989 19.9118 14.5809 20.1964C14.4629 20.4809 14.4024 20.7859 14.4028 21.0938V35.9375C14.4047 36.9912 14.5362 38.0407 14.7946 39.0625H23.2876C23.8396 39.06 24.3682 38.8403 24.7585 38.4511C25.1488 38.0619 25.3692 37.5348 25.3717 36.9844V18.75H16.7533Z" fill="black"/>
<path d="M2.38858 12.5H23.2826C23.8366 12.5 24.3679 12.7194 24.7596 13.11C25.1513 13.5006 25.3714 14.0304 25.3714 14.5828V35.4172C25.3714 35.9696 25.1513 36.4994 24.7596 36.89C24.3679 37.2806 23.8366 37.5 23.2826 37.5H2.38858C1.8346 37.5 1.30331 37.2806 0.911593 36.89C0.519872 36.4994 0.299805 35.9696 0.299805 35.4172L0.299805 14.5828C0.299805 14.0304 0.519872 13.5006 0.911593 13.11C1.30331 12.7194 1.8346 12.5 2.38858 12.5Z" fill="#4B53BC"/>
<path d="M19.0723 20.2734H14.387V32.8047H11.3126V20.2734H6.59912V17.1953H19.0723V20.2734Z" fill="white"/>
</svg>
