<svg width="16" height="16" viewBox="0 0 16 16" fill="none" xmlns="http://www.w3.org/2000/svg">
<mask id="path-1-inside-1_470_141" fill="white">
<path fill-rule="evenodd" clip-rule="evenodd" d="M8 1.90735e-06L8 16C3.58172 16 7.89961e-07 12.4183 1.17622e-06 8C1.56248e-06 3.58172 3.58172 1.52109e-06 8 1.90735e-06Z"/>
</mask>
<path d="M8 1.90735e-06L9 1.99477e-06L9 -0.999998L8 -0.999998L8 1.90735e-06ZM8 16L8 17L9 17L9 16L8 16ZM7 1.81993e-06L7 16L9 16L9 1.99477e-06L7 1.81993e-06ZM8 15C4.13401 15 1 11.866 1 8L-0.999999 8C-1 12.9706 3.02944 17 8 17L8 15ZM1 8C1 4.13401 4.13401 1 8 1L8 -0.999998C3.02944 -0.999999 -0.999999 3.02944 -0.999999 8L1 8Z" fill="#181818" mask="url(#path-1-inside-1_470_141)"/>
<path fill-rule="evenodd" clip-rule="evenodd" d="M8 16L8 0C12.4183 -7.72516e-07 16 3.58172 16 8C16 12.4183 12.4183 16 8 16Z" fill="#181818"/>
</svg>
